<svg xmlns="http://www.w3.org/2000/svg" viewBox="0 0 64 64">
  <defs>
    <radialGradient id="orb" cx="38%" cy="32%" r="75%">
      <stop offset="0%" stop-color="#0b3a86"/>
      <stop offset="60%" stop-color="#052657"/>
      <stop offset="100%" stop-color="#03122e"/>
    </radialGradient>
    <linearGradient id="rim" x1="0" y1="0" x2="1" y2="1">
      <stop offset="0%" stop-color="#f2d472"/>
      <stop offset="100%" stop-color="#b8912a"/>
    </linearGradient>
    <linearGradient id="star" x1="0" y1="0" x2="0" y2="1">
      <stop offset="0%" stop-color="#f7dd8c"/>
      <stop offset="100%" stop-color="#d4af37"/>
    </linearGradient>
  </defs>
  <circle cx="32" cy="32" r="30" fill="url(#rim)"/>
  <circle cx="32" cy="32" r="27.5" fill="url(#orb)"/>
  <g stroke="rgba(120,190,255,0.28)" stroke-width="0.8" fill="none">
    <ellipse cx="32" cy="32" rx="10" ry="27.5"/>
    <ellipse cx="32" cy="32" rx="20" ry="27.5"/>
    <line x1="4.5" y1="32" x2="59.5" y2="32"/>
    <path d="M8 20 H56"/>
    <path d="M8 44 H56"/>
  </g>
  <polygon fill="url(#star)" stroke="#8a6a1e" stroke-width="0.6" points="32,25 33.9,31 40.1,31 35.1,34.7 37,40.6 32,37 27,40.6 28.9,34.7 23.9,31 30.1,31"/>
  <g fill="url(#star)">
    <polygon points="12,26 12.7,28 14.7,28 13.1,29.2 13.7,31.2 12,30 10.3,31.2 10.9,29.2 9.3,28 11.3,28"/>
    <polygon points="20,17 20.7,19 22.7,19 21.1,20.2 21.7,22.2 20,21 18.3,22.2 18.9,20.2 17.3,19 19.3,19"/>
    <polygon points="32,13 32.7,15 34.7,15 33.1,16.2 33.7,18.2 32,17 30.3,18.2 30.9,16.2 29.3,15 31.3,15"/>
    <polygon points="44,17 44.7,19 46.7,19 45.1,20.2 45.7,22.2 44,21 42.3,22.2 42.9,20.2 41.3,19 43.3,19"/>
    <polygon points="52,26 52.7,28 54.7,28 53.1,29.2 53.7,31.2 52,30 50.3,31.2 50.9,29.2 49.3,28 51.3,28"/>
  </g>
</svg>
